<svg width="30" height="30" viewBox="0 0 30 30" fill="none" xmlns="http://www.w3.org/2000/svg">
<path fill-rule="evenodd" clip-rule="evenodd" d="M1.5625 8.75C1.5625 4.78045 4.78045 1.5625 8.75 1.5625H21.25C25.2195 1.5625 28.4375 4.78045 28.4375 8.75V21.25C28.4375 25.2195 25.2195 28.4375 21.25 28.4375H8.75C4.78045 28.4375 1.5625 25.2195 1.5625 21.25V8.75ZM13.7121 17.5379C14.0782 17.904 14.6718 17.904 15.0379 17.5379L20.0379 12.5379C20.404 12.1718 20.404 11.5782 20.0379 11.2121C19.6718 10.846 19.0782 10.846 18.7121 11.2121L14.375 15.5492L12.5379 13.7121C12.1718 13.346 11.5782 13.346 11.2121 13.7121C10.846 14.0782 10.846 14.6718 11.2121 15.0379L13.7121 17.5379Z" fill="#1187F6"/>
</svg>
