<svg width="24" height="24" viewBox="0 0 24 24" fill="none" xmlns="http://www.w3.org/2000/svg">
<path d="M8.00483 2.82989L7.70493 2.14246L8.00483 2.82989ZM8.00485 21.1701L8.30475 20.4827L8.00485 21.1701ZM15.9947 21.1701L15.6948 20.4827L15.9947 21.1701ZM21.3089 15.6599L20.6109 15.3853L21.3089 15.6599ZM21.3089 8.34004L20.6109 8.61466L21.3089 8.34004ZM15.6598 21.309L15.9344 22.007L15.6598 21.309ZM16.2947 2.14247C16.1757 2.09055 16.0556 2.04073 15.9344 1.99303L15.3851 3.38887C15.4893 3.42986 15.5926 3.4727 15.6949 3.51733L16.2947 2.14247ZM22.0068 8.06543C21.959 7.94404 21.9091 7.82373 21.8571 7.70455L20.4823 8.30443C20.527 8.40689 20.5699 8.51031 20.6109 8.61466L22.0068 8.06543ZM21.8575 16.2945C21.9094 16.1756 21.9591 16.0556 22.0068 15.9346L20.6109 15.3853C20.57 15.4894 20.5272 15.5926 20.4826 15.6947L21.8575 16.2945ZM15.9344 22.007C16.0556 21.9593 16.1756 21.9095 16.2946 21.8576L15.6948 20.4827C15.5925 20.5273 15.4893 20.5701 15.3852 20.6111L15.9344 22.007ZM7.70495 21.8575C7.82394 21.9095 7.94406 21.9593 8.06526 22.007L8.61448 20.6111C8.51031 20.5701 8.40705 20.5273 8.30475 20.4827L7.70495 21.8575ZM1.99285 15.9346C2.04053 16.0557 2.09035 16.1758 2.14226 16.2948L3.51712 15.695C3.4725 15.5927 3.42967 15.4895 3.38869 15.3853L1.99285 15.9346ZM2.14239 7.70485C2.09044 7.82393 2.04058 7.94414 1.99285 8.06542L3.38869 8.61465C3.42971 8.5104 3.47257 8.40706 3.51724 8.30469L2.14239 7.70485ZM8.06523 1.99304C7.94404 2.04073 7.82392 2.09055 7.70493 2.14246L8.30473 3.51732C8.40703 3.47269 8.51028 3.42986 8.61446 3.38887L8.06523 1.99304ZM6.51973 6.51969C6.821 6.21842 7.02836 5.85682 7.18642 5.5254C7.33978 5.20385 7.47946 4.83548 7.59478 4.55741C7.86423 3.90769 8.06035 3.62394 8.30473 3.51732L7.70493 2.14246C6.83935 2.52008 6.45591 3.38792 6.2092 3.9828C6.06645 4.32703 5.96391 4.60421 5.83253 4.87968C5.70585 5.14528 5.58595 5.33216 5.45907 5.45903L6.51973 6.51969ZM3.51724 8.30469C3.62386 8.0603 3.90763 7.86418 4.55738 7.59474C4.83546 7.47943 5.20384 7.33976 5.52541 7.1864C5.85683 7.02833 6.21845 6.82098 6.51973 6.51969L5.45907 5.45903C5.33219 5.58591 5.14531 5.70581 4.87971 5.83249C4.60424 5.96386 4.32704 6.0664 3.9828 6.20915C3.38791 6.45585 2.52004 6.83927 2.14239 7.70485L3.51724 8.30469ZM4.24981 12C4.24981 11.5737 4.14063 11.1713 4.01795 10.8251C3.89893 10.4892 3.73707 10.1298 3.62194 9.85165C3.35288 9.20156 3.29115 8.86254 3.38869 8.61465L1.99285 8.06542C1.64683 8.94484 1.98962 9.83008 2.23596 10.4253C2.37854 10.7698 2.50211 11.0383 2.60409 11.3261C2.70241 11.6035 2.74981 11.8205 2.74981 12H4.24981ZM3.38869 15.3853C3.29115 15.1374 3.35288 14.7984 3.62194 14.1483C3.73707 13.8702 3.89893 13.5108 4.01795 13.1749C4.14063 12.8287 4.24981 12.4262 4.24981 12H2.74981C2.74981 12.1795 2.70241 12.3964 2.60409 12.6739C2.50211 12.9617 2.37854 13.2302 2.23596 13.5747C1.98961 14.1699 1.64683 15.0552 1.99285 15.9346L3.38869 15.3853ZM6.51973 17.4801C6.21844 17.1788 5.85681 16.9714 5.52536 16.8134C5.20379 16.66 4.83539 16.5203 4.55729 16.405C3.90751 16.1355 3.62373 15.9394 3.51712 15.695L2.14226 16.2948C2.51989 17.1605 3.3878 17.5439 3.98272 17.7906C4.32698 17.9333 4.60419 18.0359 4.87968 18.1673C5.1453 18.2939 5.33219 18.4138 5.45906 18.5407L6.51973 17.4801ZM8.30475 20.4827C8.06036 20.3761 7.86424 20.0923 7.59479 19.4425C7.47948 19.1644 7.3398 18.796 7.18644 18.4744C7.02838 18.143 6.82102 17.7814 6.51973 17.4801L5.45906 18.5407C5.58594 18.6676 5.70585 18.8545 5.83252 19.1201C5.9639 19.3956 6.06644 19.6728 6.2092 20.0171C6.45589 20.612 6.83932 21.4799 7.70495 21.8575L8.30475 20.4827ZM17.4799 17.4798C17.1786 17.7811 16.9712 18.1428 16.8131 18.4743C16.6598 18.7959 16.5201 19.1643 16.4048 19.4424C16.1353 20.0923 15.9392 20.3761 15.6948 20.4827L16.2946 21.8576C17.1603 21.4799 17.5437 20.6119 17.7904 20.0169C17.9332 19.6726 18.0357 19.3954 18.1671 19.1199C18.2938 18.8542 18.4137 18.6673 18.5405 18.5405L17.4799 17.4798ZM20.4826 15.6947C20.376 15.9391 20.0923 16.1353 19.4424 16.4047C19.1643 16.52 18.7959 16.6597 18.4743 16.8131C18.1428 16.9711 17.7812 17.1785 17.4799 17.4798L18.5405 18.5405C18.6674 18.4136 18.8543 18.2937 19.12 18.167C19.3955 18.0356 19.6727 17.9331 20.017 17.7903C20.6119 17.5436 21.4799 17.1602 21.8575 16.2945L20.4826 15.6947ZM19.7498 12C19.7498 12.4262 19.859 12.8287 19.9817 13.1749C20.1007 13.5108 20.2626 13.8702 20.3777 14.1483C20.6467 14.7984 20.7085 15.1374 20.6109 15.3853L22.0068 15.9346C22.3528 15.0551 22.01 14.1699 21.7637 13.5747C21.6211 13.2302 21.4975 12.9617 21.3955 12.6739C21.2972 12.3964 21.2498 12.1795 21.2498 12H19.7498ZM17.4799 6.51947C17.7812 6.82075 18.1428 7.0281 18.4742 7.18616C18.7957 7.33952 19.1641 7.47918 19.4422 7.5945C20.0919 7.86392 20.3756 8.06004 20.4823 8.30443L21.8571 7.70455C21.4794 6.839 20.6116 6.4556 20.0167 6.20891C19.6725 6.06616 19.3953 5.96363 19.1199 5.83225C18.8543 5.70559 18.6674 5.58569 18.5405 5.45881L17.4799 6.51947ZM11.9998 19.75C11.5736 19.75 11.1711 19.8592 10.8249 19.9819C10.489 20.1009 10.1296 20.2627 9.85148 20.3779C9.20139 20.6469 8.86237 20.7087 8.61448 20.6111L8.06526 22.007C8.94468 22.353 9.82992 22.0102 10.4251 21.7638C10.7696 21.6213 11.0381 21.4977 11.3259 21.3957C11.6034 21.2974 11.8204 21.25 11.9998 21.25V19.75ZM15.6949 3.51733C15.9393 3.62394 16.1354 3.90767 16.4049 4.55733C16.5202 4.83538 16.6599 5.20372 16.8132 5.52525C16.9713 5.85664 17.1786 6.21822 17.4799 6.51947L18.5405 5.45881C18.4137 5.33194 18.2938 5.14507 18.1671 4.87949C18.0357 4.60404 17.9332 4.32688 17.7904 3.98267C17.5437 3.38783 17.1603 2.52008 16.2947 2.14247L15.6949 3.51733ZM11.9998 4.25C12.426 4.25 12.8285 4.14082 13.1747 4.01813C13.5106 3.89911 13.87 3.73726 14.1481 3.62213C14.7982 3.35306 15.1373 3.29133 15.3851 3.38887L15.9344 1.99303C15.055 1.64701 14.1697 1.9898 13.5745 2.23615C13.23 2.37873 12.9615 2.5023 12.6737 2.60428C12.3962 2.7026 12.1793 2.75 11.9998 2.75V4.25ZM20.6109 8.61466C20.7085 8.86255 20.6467 9.20157 20.3777 9.85165C20.2626 10.1298 20.1007 10.4892 19.9817 10.8251C19.859 11.1713 19.7498 11.5737 19.7498 12H21.2498C21.2498 11.8205 21.2972 11.6036 21.3955 11.3261C21.4975 11.0383 21.6211 10.7698 21.7637 10.4253C22.01 9.83009 22.3528 8.94485 22.0068 8.06543L20.6109 8.61466ZM15.3852 20.6111C15.1373 20.7087 14.7983 20.6469 14.1482 20.3779C13.87 20.2627 13.5106 20.1009 13.1747 19.9819C12.8285 19.8592 12.4261 19.75 11.9998 19.75V21.25C12.1793 21.25 12.3963 21.2974 12.6737 21.3957C12.9615 21.4977 13.23 21.6213 13.5745 21.7638C14.1697 22.0102 15.055 22.353 15.9344 22.007L15.3852 20.6111ZM11.9998 2.75C11.8203 2.75 11.6034 2.7026 11.3259 2.60428C11.0381 2.5023 10.7696 2.37873 10.4251 2.23615C9.82989 1.9898 8.94464 1.64702 8.06523 1.99304L8.61446 3.38887C8.86235 3.29134 9.20137 3.35307 9.85146 3.62213C10.1296 3.73726 10.489 3.89912 10.8249 4.01814C11.1711 4.14082 11.5736 4.25 11.9998 4.25V2.75Z" fill="#0E87F6"/>
<circle cx="9.79834" cy="9.7986" r="0.791538" transform="rotate(45 9.79834 9.7986)" fill="#0E87F6"/>
<circle cx="14.2017" cy="14.2015" r="0.791538" transform="rotate(45 14.2017 14.2015)" fill="#0E87F6"/>
<path d="M9.76115 14.2387L14.2388 9.76111" stroke="#0E87F6" stroke-width="1.5" stroke-linecap="round" stroke-linejoin="round"/>
</svg>
