<svg width="24" height="24" viewBox="0 0 24 24" fill="none" xmlns="http://www.w3.org/2000/svg">
<path fill-rule="evenodd" clip-rule="evenodd" d="M4.51436 6.15877C4.19689 6.33514 4 6.66977 4 7.03293V11.6716C4 15.3033 5.96892 18.6495 9.14357 20.4132L11.5144 21.7303C11.8164 21.8981 12.1836 21.8981 12.4856 21.7303L14.8564 20.4132C18.0311 18.6495 20 15.3033 20 11.6716V7.03293C20 6.66976 19.8031 6.33514 19.4856 6.15877L12.4856 2.26989C12.1836 2.1021 11.8164 2.1021 11.5144 2.26989L4.51436 6.15877ZM10.9697 14.5304C11.2626 14.8233 11.7374 14.8233 12.0303 14.5304L16.0303 10.5304C16.3232 10.2375 16.3232 9.76265 16.0303 9.46975C15.7374 9.17686 15.2626 9.17686 14.9697 9.46975L11.5 12.9394L10.0303 11.4698C9.73744 11.1769 9.26256 11.1769 8.96967 11.4698C8.67678 11.7626 8.67678 12.2375 8.96967 12.5304L10.9697 14.5304Z" fill="#1187F6"/>
</svg>
