<svg width="30" height="30" viewBox="0 0 30 30" fill="none" xmlns="http://www.w3.org/2000/svg">
<path fill-rule="evenodd" clip-rule="evenodd" d="M24.5898 2.04599C26.6071 1.78214 28.2696 3.44463 28.0057 5.46197C27.6201 8.41072 26.5612 13.4201 23.5668 16.6486C22.6141 17.6759 21.4633 18.625 20.2798 19.4683L20.6256 21.8889C20.723 22.5705 20.4937 23.2582 20.0069 23.745L16.0294 27.7225C14.7548 28.9972 12.572 28.2696 12.3171 26.4851L11.7867 22.7728L11.7883 22.7725C11.4497 22.6086 11.1356 22.3869 10.862 22.1133L7.93843 19.1897C7.66482 18.9161 7.44309 18.602 7.27915 18.2633L7.27892 18.265L3.56661 17.7347C1.78212 17.4797 1.05454 15.297 2.32917 14.0224L6.30664 10.0449C6.79351 9.55801 7.48119 9.32879 8.1628 9.42616L10.5834 9.77196C11.4267 8.58848 12.3758 7.43766 13.4031 6.48491C16.6317 3.49053 21.641 2.43165 24.5898 2.04599ZM5.42279 19.3256C5.7889 19.6917 5.78891 20.2853 5.42279 20.6515L3.65502 22.4192C3.2889 22.7853 2.69531 22.7853 2.32919 22.4192C1.96308 22.0531 1.96308 21.4595 2.32919 21.0934L4.09696 19.3256C4.46308 18.9595 5.05667 18.9595 5.42279 19.3256ZM8.07444 21.9773C8.44055 22.3434 8.44056 22.937 8.07444 23.3031L4.5389 26.8386C4.17279 27.2048 3.5792 27.2048 3.21308 26.8386C2.84696 26.4725 2.84696 25.8789 3.21308 25.5128L6.74861 21.9773C7.11473 21.6112 7.70832 21.6112 8.07444 21.9773ZM10.7261 24.6289C11.0922 24.995 11.0922 25.5886 10.7261 25.9548L8.95832 27.7225C8.5922 28.0886 7.99861 28.0886 7.6325 27.7225C7.26638 27.3564 7.26638 26.7628 7.6325 26.3967L9.40026 24.6289C9.76638 24.2628 10.36 24.2628 10.7261 24.6289ZM17.1338 12.9174C16.1575 11.9411 16.1575 10.3581 17.1338 9.38183C18.1102 8.40552 19.6931 8.40552 20.6694 9.38183C21.6457 10.3581 21.6457 11.9411 20.6694 12.9174C19.6931 13.8937 18.1102 13.8937 17.1338 12.9174Z" fill="#1187F6"/>
</svg>
