<svg width="59" height="60" viewBox="0 0 59 60" fill="none" xmlns="http://www.w3.org/2000/svg">
<path d="M3.54894 29.3721C17.4069 23.0217 26.6478 18.835 31.2713 16.8122C44.4729 11.0367 47.216 10.0335 49.0039 10.0004C49.3972 9.99307 50.2766 10.0956 50.846 10.5817C51.3269 10.9921 51.4592 11.5466 51.5226 11.9357C51.586 12.3249 51.6647 13.2114 51.6021 13.9041C50.8867 21.8103 47.7912 40.9966 46.2164 49.8516C45.5501 53.5985 44.2381 54.8546 42.9678 54.9777C40.2072 55.2449 38.1108 53.0588 35.4372 51.2155C31.2534 48.3307 28.8897 46.5349 24.8285 43.7199C20.1352 40.4669 23.1777 38.6788 25.8524 35.7569C26.5525 34.9921 38.7156 23.3557 38.9509 22.3001C38.9802 22.168 39.0077 21.6759 38.7296 21.416C38.4518 21.1562 38.0416 21.245 37.7456 21.3157C37.326 21.4159 30.642 26.0624 17.6941 35.2557C15.797 36.6257 14.0786 37.2935 12.539 37.2585C10.8416 37.2199 7.57669 36.2491 5.14954 35.4194C2.17254 34.4013 -0.193526 33.8632 0.0125069 32.1346C0.119819 31.2344 1.29863 30.3135 3.54894 29.3721Z" fill="white"/>
</svg>
