<svg width="59" height="60" viewBox="0 0 59 60" fill="none" xmlns="http://www.w3.org/2000/svg">
<path d="M29.5023 5C43.0792 5 54.0857 16.1929 54.0857 30C54.0857 43.807 43.0792 55 29.5023 55C24.994 55 20.7691 53.766 17.1366 51.6117L4.92922 55L8.25279 42.5788C6.13326 38.884 4.91895 34.5863 4.91895 30C4.91895 16.1929 15.9253 5 29.5023 5ZM20.631 18.2708C20.3129 18.2936 20.001 18.3726 19.7171 18.5203C19.5041 18.6311 19.3063 18.7913 18.9956 19.0897C18.7022 19.3714 18.5322 19.6174 18.353 19.8547C17.4442 21.058 16.9557 22.5351 16.9648 24.0525C16.9697 25.279 17.283 26.471 17.7778 27.584C18.7811 29.841 20.4357 32.227 22.6213 34.4398C23.1463 34.9713 23.6607 35.5085 24.2153 36.005C26.928 38.434 30.1607 40.1855 33.6562 41.1205C33.6562 41.1205 35.0328 41.3355 35.053 41.3368C35.509 41.3618 35.9643 41.3282 36.4208 41.3045C37.1369 41.267 37.8361 41.07 38.4689 40.7272C38.8757 40.507 39.0682 40.3975 39.4097 40.1785C39.4097 40.1785 39.5144 40.1065 39.7165 39.9535C40.0483 39.702 40.2534 39.525 40.5294 39.2335C40.733 39.0185 40.908 38.7645 41.0432 38.4782C41.2355 38.0703 41.4289 37.2915 41.5059 36.6447C41.5646 36.1507 41.5469 35.8808 41.5405 35.7135C41.53 35.4445 41.3114 35.1677 41.072 35.0502L39.6425 34.3968C39.6425 34.3968 37.5049 33.4508 36.1976 32.8442C36.0614 32.781 35.9124 32.7518 35.7627 32.7425C35.4348 32.722 35.0673 32.809 34.8335 33.0595C34.8212 33.0545 34.6584 33.1975 32.8798 35.3888C32.7817 35.508 32.5519 35.7673 32.1544 35.743C32.0944 35.7388 32.0347 35.73 31.9764 35.7145C31.8154 35.6712 31.6585 35.6143 31.5051 35.5483C31.201 35.417 31.0943 35.3673 30.8866 35.2763C29.4674 34.6458 28.165 33.8022 27.0138 32.77C26.705 32.4935 26.4179 32.1957 26.1219 31.904C25.0889 30.8857 24.2432 29.8027 23.6141 28.7345C23.5797 28.6763 23.5268 28.592 23.4698 28.4978C23.3668 28.3275 23.2533 28.125 23.2177 27.986C23.1263 27.6182 23.3688 27.3228 23.3688 27.3228C23.3688 27.3228 23.9671 26.6575 24.2451 26.2957C24.5126 25.9475 24.7435 25.607 24.8905 25.3643C25.1801 24.8908 25.2718 24.4015 25.1196 24.0241C24.4299 22.3141 23.7183 20.6134 22.9849 18.9223C22.8402 18.5886 22.4097 18.3461 22.0182 18.3002C21.8855 18.2846 21.753 18.2689 21.6199 18.26C21.2903 18.2437 20.9601 18.2473 20.631 18.2708Z" fill="white"/>
</svg>
