<svg width="30" height="30" viewBox="0 0 30 30" fill="none" xmlns="http://www.w3.org/2000/svg">
<path fill-rule="evenodd" clip-rule="evenodd" d="M8.74951 7.49992C5.29773 7.49992 2.49951 10.2981 2.49951 13.7499V21.2499C2.49951 24.7017 5.29773 27.4999 8.74951 27.4999H21.2495C24.5965 27.4999 27.329 24.869 27.4918 21.5624H21.8745C19.6308 21.5624 17.812 19.7436 17.812 17.4999C17.812 15.2563 19.6308 13.4374 21.8745 13.4374H27.4918C27.329 10.1308 24.5965 7.49992 21.2495 7.49992H8.74951ZM21.8745 15.3124H27.4995V19.6874H21.8745C20.6664 19.6874 19.687 18.708 19.687 17.4999C19.687 16.2918 20.6664 15.3124 21.8745 15.3124ZM7.4995 20.9374C6.98174 20.9374 6.562 21.3572 6.562 21.8749C6.562 22.3927 6.98174 22.8124 7.4995 22.8124H14.9995C15.5173 22.8124 15.937 22.3927 15.937 21.8749C15.937 21.3572 15.5173 20.9374 14.9995 20.9374H7.4995ZM21.8745 16.5624C21.3567 16.5624 20.937 16.9822 20.937 17.4999C20.937 18.0177 21.3567 18.4374 21.8745 18.4374H22.1245C22.6423 18.4374 23.062 18.0177 23.062 17.4999C23.062 16.9822 22.6423 16.5624 22.1245 16.5624H21.8745Z" fill="#1187F6"/>
<path d="M24.3594 6.24115C23.458 3.75193 20.8253 2.14487 18.0513 2.716L7.30044 4.92941C5.05496 5.39172 3.23573 6.872 2.28418 8.82868C3.76851 6.8815 6.11241 5.62487 8.74982 5.62487H21.2498C22.3513 5.62487 23.4015 5.84404 24.3594 6.24115Z" fill="#1187F6"/>
</svg>
