<svg width="30" height="30" viewBox="0 0 30 30" fill="none" xmlns="http://www.w3.org/2000/svg">
<path d="M13.9718 2.95847C14.4382 2.18348 15.5618 2.18348 16.0282 2.95847L19.2638 8.33498C19.4314 8.6134 19.7047 8.81196 20.0212 8.88528L26.1345 10.3011C27.0156 10.5052 27.3628 11.5738 26.7699 12.2568L22.6564 16.9955C22.4434 17.2409 22.339 17.5622 22.3671 17.8859L22.9096 24.1375C22.9878 25.0386 22.0789 25.699 21.246 25.3461L15.4681 22.8983C15.1689 22.7716 14.8311 22.7716 14.5319 22.8983L8.75397 25.3461C7.92113 25.699 7.01215 25.0386 7.09036 24.1375L7.63291 17.8859C7.661 17.5622 7.55661 17.2409 7.3436 16.9955L3.2301 12.2568C2.63717 11.5738 2.98437 10.5052 3.86554 10.3011L9.97878 8.88528C10.2953 8.81196 10.5686 8.6134 10.7362 8.33498L13.9718 2.95847Z" fill="#0E87F6" stroke="#0E87F6" stroke-width="1.5"/>
</svg>
